<svg width="20" height="20" viewBox="0 0 20 20" fill="none" xmlns="http://www.w3.org/2000/svg">
<g clip-path="url(#clip0_24_417)">
<path d="M19.9989 15.0679L19.9934 15.6723C19.9501 16.2159 19.6133 16.4224 19.105 16.422L18.7057 16.4075C18.7065 16.0044 18.5254 15.5736 18.2976 15.2458C17.2509 13.7401 14.8914 14.1559 14.4173 15.9587C14.3769 16.1122 14.361 16.264 14.3341 16.4192C14.097 16.4448 13.8358 16.4239 13.5965 16.424L7.18252 16.4238C7.1504 16.3379 7.15975 16.2178 7.14031 16.1241C6.60747 13.5577 3.00808 13.838 2.79964 16.4251L2.1126 16.4246C1.97579 16.4243 1.81027 16.4412 1.67904 16.4031C0.983866 16.2014 0.929883 15.7075 0.929286 15.1176L0.928124 3.94221C0.928218 3.63164 0.913131 3.31285 0.933578 3.0035C0.963061 2.55733 1.37211 2.13869 1.80898 2.08002C1.93593 2.06294 2.06992 2.07048 2.19805 2.07008L2.84406 2.06902L13.1477 2.06726C13.2732 2.06706 13.4071 2.05799 13.5317 2.0713C13.9445 2.1154 14.379 2.46764 14.426 2.89547L14.4285 2.91915C14.4562 3.15067 14.4399 3.3965 14.4399 3.6303L14.4374 12.9472C14.4372 13.2738 14.4192 13.6123 14.4391 13.9374C14.4611 14.2959 15.003 14.2392 15.0377 13.8771C15.0621 13.6226 15.0442 13.3502 15.044 13.094L15.044 6.72733C15.2147 6.72714 15.4036 6.71198 15.5722 6.7333C16.4541 6.84471 16.5661 7.71788 16.7508 8.39978L17.1889 9.95195C17.3786 10.6139 17.3587 10.7848 17.9848 11.1047L18.6787 11.4407C19.492 11.8175 20 12.0113 20.0002 13.0632L19.9989 15.0679ZM6.48413 4.45089C6.30903 4.47603 6.26321 4.70583 6.20352 4.84668L4.3169 9.91366C4.14918 10.4325 4.63297 10.3266 4.95839 10.325L9.02893 10.3243L10.7992 10.3246C11.2715 10.324 11.2434 10.1896 11.2309 9.76436L11.2197 9.41817C11.076 7.10839 9.27412 5.03309 7.02859 4.5226C6.85078 4.48219 6.66759 4.44245 6.48413 4.45089Z" fill="#2C2826"/>
<path d="M8.95509 9.72339L5.01123 9.7173L6.74333 5.05789C8.72874 5.55645 10.1541 6.94365 10.5734 8.98691C10.6241 9.23371 10.6376 9.47556 10.6667 9.72413L8.95509 9.72339ZM7.05512 6.96422C6.48093 7.12621 6.60322 7.92501 7.2341 7.84537C7.78343 7.67632 7.66166 6.93897 7.05512 6.96422ZM8.07614 8.24296C7.5135 8.33642 7.47659 9.10601 8.10492 9.13012C8.66297 9.06073 8.69101 8.26032 8.07614 8.24296Z" fill="#2C2826"/>
<path d="M5.08143 18.0803C3.64707 18.095 2.86037 16.5439 3.79798 15.4686C4.09972 15.1225 4.46994 14.976 4.92012 14.9444C5.73176 14.891 6.50158 15.5118 6.56551 16.3342C6.63557 17.2349 5.99121 18.015 5.08143 18.0803Z" fill="#2C2826"/>
<path d="M16.72 18.0753C14.5774 18.2315 14.2889 15.2223 16.333 14.9436C17.7555 14.7811 18.6262 16.3677 17.7707 17.4771C17.5084 17.8173 17.1411 18.0195 16.72 18.0753Z" fill="#2C2826"/>
</g>
<defs>
<clipPath id="clip0_24_417">
<rect width="20" height="20" fill="white"/>
</clipPath>
</defs>
</svg>
