<svg width="222" height="31" viewBox="0 0 222 31" fill="none" xmlns="http://www.w3.org/2000/svg">
<path d="M19.4706 4.41675H4.00705C2.84635 4.41675 1.88156 5.29293 1.79345 6.42705L0.468006 23.4879C0.310096 25.5204 2.83566 26.6304 4.27963 25.1631L21.0687 8.10226C22.4281 6.72082 21.429 4.41675 19.4706 4.41675Z" fill="#FF8A00"/>
<path d="M212.466 5.45604H221.391V25.0835H212.466V24.1978C212.466 24.056 212.327 24.056 212.292 24.056C212.257 24.056 212.222 24.056 212.187 24.0915C211.106 25.1898 209.886 25.7212 208.492 25.7212C204.482 25.7212 201.554 21.2926 201.554 15.4469C201.554 9.77832 204.866 5.17261 208.945 5.17261H208.98C210.2 5.17261 211.281 5.59775 212.187 6.44804C212.222 6.48346 212.257 6.48347 212.292 6.48347C212.327 6.48347 212.466 6.44804 212.466 6.30632V5.45604ZM212.466 18.9543V11.904C212.466 11.5143 212.152 11.2309 211.769 11.2309C211.385 11.2309 211.106 11.5143 211.106 11.904V18.9543C211.106 19.344 211.385 19.6275 211.769 19.6275C212.152 19.6275 212.466 19.344 212.466 18.9543Z" fill="#FF8A00"/>
<path d="M195.362 17.2538L190.516 17.9269C190.098 17.9623 189.958 18.3521 189.958 18.6001C189.958 18.6709 189.993 19.2732 190.586 19.2732C190.621 19.2732 190.656 19.2732 190.691 19.2732L200.383 17.8915V25.0835H186.995C183.787 25.0835 181.208 22.4618 181.208 19.2023C181.208 16.2618 183.369 13.6755 186.228 13.2858L191.179 12.5772C191.632 12.5418 191.737 12.1875 191.737 11.9395C191.737 11.8686 191.667 11.2309 191.179 11.2309C191.109 11.2309 191.074 11.2663 191.004 11.2663L181.208 12.6481V5.45605H194.595C197.803 5.45605 200.383 8.1132 200.383 11.3726C200.383 14.3132 198.221 16.7932 195.362 17.2538Z" fill="#FF8A00"/>
<path d="M174.423 17.2538L169.577 17.9269C169.159 17.9623 169.019 18.3521 169.019 18.6001C169.019 18.6709 169.054 19.2732 169.647 19.2732C169.682 19.2732 169.717 19.2732 169.752 19.2732L179.444 17.8915V25.0835H166.056C162.849 25.0835 160.269 22.4618 160.269 19.2023C160.269 16.2618 162.43 13.6755 165.289 13.2858L170.24 12.5772C170.693 12.5418 170.798 12.1875 170.798 11.9395C170.798 11.8686 170.728 11.2309 170.24 11.2309C170.17 11.2309 170.135 11.2663 170.065 11.2663L160.269 12.6481V5.45605H173.656C176.864 5.45605 179.444 8.1132 179.444 11.3726C179.444 14.3132 177.282 16.7932 174.423 17.2538Z" fill="#FF8A00"/>
<path d="M158.434 5.27886C158.259 6.51886 157.597 7.54628 156.656 8.21943C155.714 8.89257 154.773 9.10514 154.041 9.10514C153.797 9.10514 153.588 9.06971 153.343 9.03429C152.123 8.78629 151.112 8.14857 150.45 7.192C149.752 6.23543 149.578 5.27886 149.578 4.57028C149.578 4.32228 149.613 4.07428 149.648 3.82628C149.822 2.58628 150.485 1.55886 151.426 0.850285C152.367 0.177143 153.309 0 154.006 0C154.25 0 154.494 0.0354281 154.773 0.0708562C155.993 0.247999 157.004 0.921141 157.667 1.87771C158.329 2.83428 158.503 3.79086 158.503 4.49943C158.503 4.74743 158.468 4.99543 158.434 5.27886ZM158.503 25.0834H149.578V10.4514H158.503V25.0834Z" fill="#FF8A00"/>
<path d="M141.607 5.17261C145.616 5.17261 148.545 9.60118 148.545 15.4469C148.545 21.08 145.233 25.7212 141.119 25.7212C139.898 25.7212 138.853 25.296 137.911 24.4103C137.876 24.3749 137.841 24.3749 137.807 24.3749C137.772 24.3749 137.632 24.4103 137.632 24.552V30.9646H128.707V5.45604H137.632V6.66061C137.632 6.80232 137.772 6.80232 137.807 6.80232C137.841 6.80232 137.876 6.80232 137.911 6.76689C138.957 5.70403 140.177 5.17261 141.607 5.17261ZM138.992 18.9543V11.904C138.992 11.5143 138.678 11.2309 138.295 11.2309C137.911 11.2309 137.632 11.5143 137.632 11.904V18.9543C137.632 19.344 137.911 19.6275 138.295 19.6275C138.678 19.6275 138.992 19.344 138.992 18.9543Z" fill="#FF8A00"/>
<path d="M108.976 5.17261H109.011C114.589 5.17261 119.122 9.77832 119.122 15.4469C119.122 21.08 114.52 25.7212 108.976 25.7212C103.398 25.7212 98.8657 21.08 98.8657 15.4469C98.8657 9.77832 103.398 5.17261 108.976 5.17261ZM109.674 18.9543V11.904C109.674 11.5143 109.395 11.2309 109.011 11.2309C108.628 11.2309 108.349 11.5143 108.349 11.904V18.9543C108.349 19.344 108.628 19.6275 109.011 19.6275C109.395 19.6275 109.674 19.344 109.674 18.9543Z" fill="#FF8A00"/>
<path d="M88.9096 5.45604H97.8348V21.7532C97.8348 28.6263 94.3484 30.9646 88.7352 30.9646H86.5039V26.3589H88.7352C88.8398 26.3589 88.9096 26.3235 88.9096 26.2172V24.1978C88.9096 24.056 88.7701 24.056 88.7352 24.056C88.7004 24.056 88.6655 24.056 88.6306 24.0915C87.5499 25.1898 86.3296 25.7212 84.935 25.7212C80.9257 25.7212 77.9971 21.2926 77.9971 15.4469C77.9971 9.77832 81.3092 5.17261 85.3883 5.17261H85.4231C86.6434 5.17261 87.7242 5.59775 88.6306 6.44804C88.6655 6.48346 88.7004 6.48347 88.7352 6.48347C88.7701 6.48347 88.9096 6.44804 88.9096 6.30632V5.45604ZM88.9096 18.9543V11.904C88.9096 11.5143 88.5958 11.2309 88.2123 11.2309C87.8288 11.2309 87.5499 11.5143 87.5499 11.904V18.9543C87.5499 19.344 87.8288 19.6275 88.2123 19.6275C88.5958 19.6275 88.9096 19.344 88.9096 18.9543Z" fill="#FF8A00"/>
<path d="M58.8587 5.17261H58.8935C64.4718 5.17261 69.0041 9.77832 69.0041 15.4469C69.0041 21.08 64.4021 25.7212 58.8587 25.7212C53.2804 25.7212 48.748 21.08 48.748 15.4469C48.748 9.77832 53.2804 5.17261 58.8587 5.17261ZM59.5559 18.9543V11.904C59.5559 11.5143 59.277 11.2309 58.8935 11.2309C58.51 11.2309 58.2311 11.5143 58.2311 11.904V18.9543C58.2311 19.344 58.51 19.6275 58.8935 19.6275C59.277 19.6275 59.5559 19.344 59.5559 18.9543Z" fill="#FF8A00"/>
<path d="M38.7924 5.45604H47.7176V21.7532C47.7176 28.6263 44.2312 30.9646 38.6181 30.9646H36.3867V26.3589H38.6181C38.7226 26.3589 38.7924 26.3235 38.7924 26.2172V24.1978C38.7924 24.056 38.6529 24.056 38.6181 24.056C38.5832 24.056 38.5483 24.056 38.5135 24.0915C37.4327 25.1898 36.2124 25.7212 34.8179 25.7212C30.8085 25.7212 27.8799 21.2926 27.8799 15.4469C27.8799 9.77832 31.192 5.17261 35.2711 5.17261H35.306C36.5262 5.17261 37.607 5.59775 38.5135 6.44804C38.5483 6.48346 38.5832 6.48347 38.6181 6.48347C38.6529 6.48347 38.7924 6.44804 38.7924 6.30632V5.45604ZM38.7924 18.9543V11.904C38.7924 11.5143 38.4786 11.2309 38.0951 11.2309C37.7116 11.2309 37.4327 11.5143 37.4327 11.904V18.9543C37.4327 19.344 37.7116 19.6275 38.0951 19.6275C38.4786 19.6275 38.7924 19.344 38.7924 18.9543Z" fill="#FF8A00"/>
</svg>
